<svg xmlns="http://www.w3.org/2000/svg" viewBox="0 0 1194 834"
     font-family="'Source Serif 4', 'Georgia', serif" font-size="14">

  <!-- Background -->
  <rect width="1194" height="834" fill="#FEFBF5"/>

  <!-- ==================== TOP NAV BAR ==================== -->
  <rect x="0" y="0" width="1194" height="52" fill="#FEFBF5"/>
  <line x1="0" y1="52" x2="1194" y2="52" stroke="#E4D9C8"/>
  <text x="32" y="34" font-size="20" font-weight="600" fill="#4A3228"
        font-family="'Fraunces', 'Georgia', serif">Bake</text>

  <!-- Gear icon -->
  <g transform="translate(1140, 16)" stroke="#8B7355" fill="none" stroke-width="1.5" stroke-linecap="round">
    <circle cx="10" cy="10" r="9"/>
    <circle cx="10" cy="10" r="3"/>
    <line x1="10" y1="0" x2="10" y2="3" stroke-width="2"/>
    <line x1="10" y1="17" x2="10" y2="20" stroke-width="2"/>
    <line x1="0" y1="10" x2="3" y2="10" stroke-width="2"/>
    <line x1="17" y1="10" x2="20" y2="10" stroke-width="2"/>
  </g>

  <!-- ==================== LEFT COLUMN (380px, parchment-warm bg) ==================== -->
  <rect x="0" y="52" width="380" height="714" fill="#FAF5EC"/>
  <line x1="380" y1="52" x2="380" y2="766" stroke="#E4D9C8"/>

  <!-- FORMULA section label -->
  <text x="28" y="82" font-size="11" font-weight="600" fill="#8B7355"
        font-family="'Fraunces', 'Georgia', serif" letter-spacing="1.2">FORMULA</text>

  <!-- Formula Card 1: No-Knead (SELECTED) -->
  <rect x="24" y="94" width="332" height="106" rx="12" fill="#FFFFFF" stroke="#C07A2E" stroke-width="2"/>
  <!-- Thumbnail -->
  <rect x="38" y="108" width="48" height="48" rx="10" fill="rgba(192,122,46,0.14)"/>
  <text x="62" y="140" text-anchor="middle" font-size="22">🍞</text>
  <!-- Content -->
  <text x="100" y="120" font-size="15" font-weight="600" fill="#4A3228"
        font-family="'Fraunces', 'Georgia', serif">No-Knead Pain au Levain</text>
  <!-- Difficulty dots -->
  <circle cx="100" cy="136" r="3" fill="#7A9178"/>
  <circle cx="110" cy="136" r="3" fill="#E4D9C8"/>
  <circle cx="120" cy="136" r="3" fill="#E4D9C8"/>
  <circle cx="130" cy="136" r="3" fill="#E4D9C8"/>
  <text x="140" y="140" font-size="10" fill="#8B7355">Beginner</text>
  <text x="100" y="156" font-size="11" fill="#8B7355">22h · minimal handling</text>
  <text x="100" y="172" font-size="11" fill="#8B7355" font-style="italic">A hands-off loaf with a crispy crust and mild, tangy crumb.</text>
  <text x="100" y="190" font-size="10.5" fill="#C07A2E" text-decoration="underline">View previous bakes →</text>

  <!-- Formula Card 2: Four-Fold (unselected) -->
  <rect x="24" y="208" width="332" height="84" rx="12" fill="#F2EBE0" stroke="#D9CEBD"/>
  <rect x="38" y="218" width="48" height="48" rx="10" fill="#E4D9C8"/>
  <text x="62" y="250" text-anchor="middle" font-size="22">🌾</text>
  <text x="100" y="234" font-size="15" font-weight="600" fill="#4A3228"
        font-family="'Fraunces', 'Georgia', serif">Four-Fold Pain au Levain</text>
  <circle cx="100" cy="250" r="3" fill="#C07A2E"/>
  <circle cx="110" cy="250" r="3" fill="#C07A2E"/>
  <circle cx="120" cy="250" r="3" fill="#E4D9C8"/>
  <circle cx="130" cy="250" r="3" fill="#E4D9C8"/>
  <text x="140" y="254" font-size="10" fill="#8B7355">Intermediate</text>
  <text x="100" y="270" font-size="11" fill="#8B7355">16.5h · 4 folds · structure building</text>
  <text x="100" y="284" font-size="10.5" fill="#C07A2E" text-decoration="underline">View previous bakes →</text>

  <!-- + New Formula (dashed) -->
  <rect x="24" y="300" width="332" height="40" rx="12" fill="none" stroke="#A89478"
        stroke-width="1.5" stroke-dasharray="6 4"/>
  <text x="190" y="326" text-anchor="middle" font-size="12.5" fill="#A89478">+ New Formula</text>

  <!-- STARTER section -->
  <text x="28" y="370" font-size="11" font-weight="600" fill="#8B7355"
        font-family="'Fraunces', 'Georgia', serif" letter-spacing="1.2">STARTER</text>
  <rect x="24" y="382" width="332" height="44" rx="10" fill="#FFFFFF" stroke="#E4D9C8"/>
  <circle cx="44" cy="404" r="5" fill="#5E8A50"/>
  <text x="58" y="400" font-size="14" font-weight="600" fill="#4A3228">Rye Baby</text>
  <text x="340" y="408" text-anchor="end" font-size="12" fill="#8B7355">▼</text>
  <text x="58" y="418" font-size="11" fill="#8B7355">Fed 6 hours ago</text>

  <!-- DOUGH WEIGHT -->
  <text x="28" y="454" font-size="11" font-weight="600" fill="#8B7355"
        font-family="'Fraunces', 'Georgia', serif" letter-spacing="1.2">DOUGH WEIGHT</text>
  <rect x="24" y="466" width="38" height="38" rx="10" fill="#FFFFFF" stroke="#E4D9C8"/>
  <text x="43" y="491" text-anchor="middle" font-size="18" fill="#C07A2E">−</text>
  <text x="190" y="494" text-anchor="middle" font-size="28" font-weight="700" fill="#4A3228"
        font-family="'Fraunces', 'Georgia', serif">900<tspan font-size="16" font-weight="400" fill="#8B7355">g</tspan></text>
  <rect x="310" y="466" width="38" height="38" rx="10" fill="#FFFFFF" stroke="#E4D9C8"/>
  <text x="329" y="491" text-anchor="middle" font-size="18" fill="#C07A2E">+</text>
  <!-- 2x doubler -->
  <rect x="270" y="470" width="32" height="22" rx="5" fill="#FFFFFF" stroke="#E4D9C8"/>
  <text x="286" y="486" text-anchor="middle" font-size="10.5" font-weight="500"
        font-family="'Fira Mono', monospace" fill="#8B7355">2×</text>

  <!-- HYDRATION / LEVAIN (Arc style) -->
  <text x="28" y="532" font-size="11" font-weight="600" fill="#8B7355"
        font-family="'Fraunces', 'Georgia', serif" letter-spacing="1.2">HYDRATION / LEVAIN</text>

  <!-- Hydration arc knob -->
  <g transform="translate(80, 548)" opacity="0.5">
    <text x="50" y="-2" text-anchor="middle" font-size="10" font-weight="600"
          fill="#8B7355" letter-spacing="1" font-family="'Fraunces', 'Georgia', serif">HYDRATION</text>
    <circle cx="50" cy="50" r="38" fill="none" stroke="#E4D9C8" stroke-width="5"/>
    <circle cx="50" cy="50" r="38" fill="none" stroke="#C07A2E" stroke-width="5"
            stroke-dasharray="180 240" stroke-linecap="round" transform="rotate(-90 50 50)"/>
    <text x="50" y="54" text-anchor="middle" font-size="18" font-weight="500"
          font-family="'Fira Mono', monospace" fill="#4A3228">74<tspan font-size="11" fill="#8B7355">%</tspan></text>
    <text x="50" y="108" text-anchor="middle" font-size="9.5" fill="#A89478" font-style="italic">Fixed</text>
  </g>

  <!-- Levain arc knob -->
  <g transform="translate(220, 548)" opacity="0.5">
    <text x="50" y="-2" text-anchor="middle" font-size="10" font-weight="600"
          fill="#8B7355" letter-spacing="1" font-family="'Fraunces', 'Georgia', serif">LEVAIN</text>
    <circle cx="50" cy="50" r="38" fill="none" stroke="#E4D9C8" stroke-width="5"/>
    <circle cx="50" cy="50" r="38" fill="none" stroke="#C07A2E" stroke-width="5"
            stroke-dasharray="30 240" stroke-linecap="round" transform="rotate(-90 50 50)"/>
    <text x="50" y="54" text-anchor="middle" font-size="18" font-weight="500"
          font-family="'Fira Mono', monospace" fill="#4A3228">5<tspan font-size="11" fill="#8B7355">%</tspan></text>
    <text x="50" y="108" text-anchor="middle" font-size="9.5" fill="#A89478" font-style="italic">Fixed</text>
  </g>

  <!-- WATER TEMPERATURE (DDT) -->
  <rect x="24" y="672" width="332" height="90" rx="12" fill="#FFFFFF" stroke="#F2EBE0"/>
  <g transform="translate(38, 680)">
    <!-- Input labels + fields -->
    <text x="0" y="10" font-size="10" fill="#A89478">Flour</text>
    <rect x="0" y="14" width="80" height="26" rx="6" fill="#FEFBF5" stroke="#E4D9C8"/>
    <text x="40" y="32" text-anchor="middle" font-size="13" font-weight="500"
          font-family="'Fira Mono', monospace" fill="#4A3228">68°F</text>

    <text x="96" y="10" font-size="10" fill="#A89478">Room</text>
    <rect x="96" y="14" width="80" height="26" rx="6" fill="#FEFBF5" stroke="#E4D9C8"/>
    <text x="136" y="32" text-anchor="middle" font-size="13" font-weight="500"
          font-family="'Fira Mono', monospace" fill="#4A3228">72°F</text>

    <text x="192" y="10" font-size="10" fill="#A89478">Levain</text>
    <rect x="192" y="14" width="80" height="26" rx="6" fill="#FEFBF5" stroke="#E4D9C8"/>
    <text x="232" y="32" text-anchor="middle" font-size="13" font-weight="500"
          font-family="'Fira Mono', monospace" fill="#4A3228">40°F</text>

    <!-- Result -->
    <text x="154" y="56" text-anchor="middle" font-size="11" fill="#8B7355">Use water at</text>
    <text x="154" y="76" text-anchor="middle" font-size="28" font-weight="700"
          font-family="'Fraunces', 'Georgia', serif" fill="#6B7C8A">127°F</text>
  </g>

  <!-- ==================== RIGHT AREA: TWO SUB-PANELS ==================== -->

  <!-- Vertical divider between Ingredients and Timeline -->
  <line x1="787" y1="52" x2="787" y2="710" stroke="#F2EBE0"/>

  <!-- === INGREDIENTS SUB-PANEL (left half of right area) === -->

  <!-- Header -->
  <text x="404" y="80" font-size="15" font-weight="600" fill="#4A3228"
        font-family="'Fraunces', 'Georgia', serif">Ingredients</text>
  <text x="756" y="80" text-anchor="end" font-size="12" fill="#8B7355"
        font-family="'Fira Mono', monospace">~870g</text>

  <!-- Pills -->
  <rect x="404" y="90" width="72" height="20" rx="6" fill="rgba(122,145,120,0.08)"/>
  <text x="440" y="104" text-anchor="middle" font-size="11" font-weight="500"
        font-family="'Fira Mono', monospace" fill="#7A9178">74% hyd</text>
  <rect x="484" y="90" width="64" height="20" rx="6" fill="rgba(192,122,46,0.08)"/>
  <text x="516" y="104" text-anchor="middle" font-size="11" font-weight="500"
        font-family="'Fira Mono', monospace" fill="#C07A2E">5% lev</text>

  <!-- Table header -->
  <text x="404" y="136" font-size="10" font-weight="600" fill="#A89478"
        letter-spacing="1" font-family="'Fraunces', 'Georgia', serif">INGREDIENT</text>
  <text x="680" y="136" text-anchor="end" font-size="10" font-weight="600" fill="#A89478"
        letter-spacing="1" font-family="'Fraunces', 'Georgia', serif">%</text>
  <text x="762" y="136" text-anchor="end" font-size="10" font-weight="600" fill="#A89478"
        letter-spacing="1" font-family="'Fraunces', 'Georgia', serif">GRAMS</text>
  <line x1="404" y1="142" x2="775" y2="142" stroke="#F2EBE0"/>

  <!-- Row 1: AP Flour (sage bg) -->
  <rect x="396" y="146" width="387" height="38" fill="rgba(122,145,120,0.08)"/>
  <text x="404" y="170" font-size="14" fill="#4A3228">AP Flour</text>
  <text x="680" y="170" text-anchor="end" font-size="12" fill="#8B7355"
        font-family="'Fira Mono', monospace">95%</text>
  <text x="762" y="170" text-anchor="end" font-size="14" font-weight="500" fill="#4A3228"
        font-family="'Fira Mono', monospace">456g</text>
  <line x1="404" y1="184" x2="775" y2="184" stroke="#F2EBE0"/>

  <!-- Row 2: Rye Flour -->
  <text x="404" y="208" font-size="14" fill="#4A3228">Rye Flour</text>
  <text x="680" y="208" text-anchor="end" font-size="12" fill="#8B7355"
        font-family="'Fira Mono', monospace">5%</text>
  <text x="762" y="208" text-anchor="end" font-size="14" font-weight="500" fill="#4A3228"
        font-family="'Fira Mono', monospace">24g</text>
  <line x1="404" y1="222" x2="775" y2="222" stroke="#F2EBE0"/>

  <!-- Row 3: Water -->
  <text x="404" y="246" font-size="14" fill="#4A3228">Water</text>
  <text x="680" y="246" text-anchor="end" font-size="12" fill="#8B7355"
        font-family="'Fira Mono', monospace">74%</text>
  <text x="762" y="246" text-anchor="end" font-size="14" font-weight="500" fill="#4A3228"
        font-family="'Fira Mono', monospace">355g</text>
  <line x1="404" y1="260" x2="775" y2="260" stroke="#F2EBE0"/>

  <!-- Row 4: Salt -->
  <text x="404" y="284" font-size="14" fill="#4A3228">Salt</text>
  <text x="680" y="284" text-anchor="end" font-size="12" fill="#8B7355"
        font-family="'Fira Mono', monospace">2.2%</text>
  <text x="762" y="284" text-anchor="end" font-size="14" font-weight="500" fill="#4A3228"
        font-family="'Fira Mono', monospace">11g</text>
  <line x1="404" y1="298" x2="775" y2="298" stroke="#F2EBE0"/>

  <!-- Row 5: Levain -->
  <text x="404" y="322" font-size="14" fill="#4A3228">Levain</text>
  <text x="680" y="322" text-anchor="end" font-size="12" fill="#8B7355"
        font-family="'Fira Mono', monospace">5%</text>
  <text x="762" y="322" text-anchor="end" font-size="14" font-weight="500" fill="#4A3228"
        font-family="'Fira Mono', monospace">24g</text>

  <!-- Total row -->
  <line x1="404" y1="338" x2="775" y2="338" stroke="#E4D9C8" stroke-width="1.5"/>
  <text x="404" y="362" font-size="12" fill="#8B7355">Hydration: 74%</text>
  <text x="620" y="362" font-size="12" fill="#8B7355">·</text>
  <text x="636" y="362" font-size="12" fill="#8B7355">Total: ~870g</text>

  <!-- === TIMELINE SUB-PANEL (right half of right area) === -->

  <text x="811" y="80" font-size="15" font-weight="600" fill="#4A3228"
        font-family="'Fraunces', 'Georgia', serif">Timeline</text>
  <text x="1150" y="80" text-anchor="end" font-size="12" fill="#8B7355"
        font-family="'Fira Mono', monospace">~23h</text>

  <!-- Timeline vertical line -->
  <line x1="823" y1="100" x2="823" y2="640" stroke="#E4D9C8" stroke-width="1.5"/>

  <!-- Step 1: Mix (first dot = golden) -->
  <circle cx="823" cy="106" r="6" fill="#C07A2E" stroke="#C07A2E"/>
  <text x="840" y="104" font-size="10.5" fill="#A89478" font-family="'Fira Mono', monospace">6:00 AM</text>
  <text x="840" y="120" font-size="13.5" font-weight="600" fill="#4A3228"
        font-family="'Fraunces', 'Georgia', serif">Mix</text>
  <rect x="876" y="108" width="42" height="16" rx="4" fill="rgba(122,145,120,0.08)"/>
  <text x="897" y="120" text-anchor="middle" font-size="9.5" fill="#7A9178"
        font-family="'Fira Mono', monospace">30m</text>

  <!-- Step 2: Add Salt -->
  <circle cx="823" cy="154" r="5" fill="#FFFFFF" stroke="#E4D9C8" stroke-width="2"/>
  <text x="840" y="152" font-size="10.5" fill="#A89478" font-family="'Fira Mono', monospace">6:30 AM</text>
  <text x="840" y="168" font-size="13.5" font-weight="600" fill="#4A3228"
        font-family="'Fraunces', 'Georgia', serif">Add Salt</text>
  <rect x="906" y="156" width="42" height="16" rx="4" fill="rgba(122,145,120,0.08)"/>
  <text x="927" y="168" text-anchor="middle" font-size="9.5" fill="#7A9178"
        font-family="'Fira Mono', monospace">30m</text>

  <!-- Step 3: Coil Fold -->
  <circle cx="823" cy="202" r="5" fill="#FFFFFF" stroke="#E4D9C8" stroke-width="2"/>
  <text x="840" y="200" font-size="10.5" fill="#A89478" font-family="'Fira Mono', monospace">7:00 AM</text>
  <text x="840" y="216" font-size="13.5" font-weight="600" fill="#4A3228"
        font-family="'Fraunces', 'Georgia', serif">Coil Fold</text>

  <!-- Bulk Proof block (gradient style) -->
  <circle cx="823" cy="250" r="5" fill="rgba(192,122,46,0.14)" stroke="#D4923F" stroke-width="2"/>
  <rect x="840" y="236" width="306" height="44" rx="10" fill="rgba(192,122,46,0.08)"
        stroke="none"/>
  <line x1="840" y1="236" x2="840" y2="280" stroke="#D4923F" stroke-width="3" stroke-linecap="round"/>
  <text x="856" y="256" font-size="12" font-weight="600" fill="#C07A2E"
        font-family="'Fraunces', 'Georgia', serif">Bulk Proof</text>
  <rect x="940" y="246" width="68" height="16" rx="4" fill="rgba(192,122,46,0.14)"/>
  <text x="974" y="258" text-anchor="middle" font-size="9.5" fill="#C07A2E"
        font-family="'Fira Mono', monospace">12-16h</text>
  <text x="856" y="274" font-size="10" fill="#A89478" font-style="italic">until ~7:00 PM today</text>

  <!-- Day boundary -->
  <text x="840" y="308" font-size="11" fill="#A89478">🌙 tomorrow</text>

  <!-- Step 4: Preshape -->
  <circle cx="823" cy="334" r="5" fill="#FFFFFF" stroke="#E4D9C8" stroke-width="2"/>
  <text x="840" y="332" font-size="10.5" fill="#A89478" font-family="'Fira Mono', monospace">7:00 PM</text>
  <text x="840" y="348" font-size="13.5" font-weight="600" fill="#4A3228"
        font-family="'Fraunces', 'Georgia', serif">Preshape</text>
  <rect x="910" y="336" width="42" height="16" rx="4" fill="rgba(122,145,120,0.08)"/>
  <text x="931" y="348" text-anchor="middle" font-size="9.5" fill="#7A9178"
        font-family="'Fira Mono', monospace">30m</text>

  <!-- Step 5: Final Shape -->
  <circle cx="823" cy="378" r="5" fill="#FFFFFF" stroke="#E4D9C8" stroke-width="2"/>
  <text x="840" y="376" font-size="10.5" fill="#A89478" font-family="'Fira Mono', monospace">7:30 PM</text>
  <text x="840" y="392" font-size="13.5" font-weight="600" fill="#4A3228"
        font-family="'Fraunces', 'Georgia', serif">Final Shape</text>
  <rect x="927" y="380" width="42" height="16" rx="4" fill="rgba(122,145,120,0.08)"/>
  <text x="948" y="392" text-anchor="middle" font-size="9.5" fill="#7A9178"
        font-family="'Fira Mono', monospace">30m</text>

  <!-- Cold Proof block (night-blue style) -->
  <circle cx="823" cy="424" r="5" fill="rgba(61,79,106,0.10)" stroke="#3D4F6A" stroke-width="2"/>
  <rect x="840" y="410" width="306" height="44" rx="10" fill="rgba(61,79,106,0.06)"
        stroke="none"/>
  <line x1="840" y1="410" x2="840" y2="454" stroke="#3D4F6A" stroke-width="3" stroke-linecap="round"/>
  <text x="856" y="430" font-size="12" font-weight="600" fill="#3D4F6A"
        font-family="'Fraunces', 'Georgia', serif">Cold Proof</text>
  <rect x="940" y="420" width="68" height="16" rx="4" fill="rgba(61,79,106,0.10)"/>
  <text x="974" y="432" text-anchor="middle" font-size="9.5" fill="#3D4F6A"
        font-family="'Fira Mono', monospace">8-24h</text>
  <text x="856" y="448" font-size="10" fill="#A89478" font-style="italic">overnight in fridge</text>

  <!-- Step 7: Bake (sage dot) -->
  <circle cx="823" cy="484" r="6" fill="#5E8A50" stroke="#5E8A50"/>
  <text x="840" y="482" font-size="10.5" fill="#A89478" font-family="'Fira Mono', monospace">4:00 AM</text>
  <text x="840" y="498" font-size="13.5" font-weight="600" fill="#4A3228"
        font-family="'Fraunces', 'Georgia', serif">Bake!</text>
  <rect x="880" y="486" width="42" height="16" rx="4" fill="rgba(122,145,120,0.08)"/>
  <text x="901" y="498" text-anchor="middle" font-size="9.5" fill="#7A9178"
        font-family="'Fira Mono', monospace">40m</text>
  <text x="840" y="516" font-size="10" fill="#A89478" font-style="italic">Bread ready ~4:40 AM</text>

  <!-- ==================== BOTTOM: SCHEDULE + ACTIONS ==================== -->
  <line x1="380" y1="710" x2="1194" y2="710" stroke="#E4D9C8"/>

  <!-- When radio buttons -->
  <text x="404" y="734" font-size="11" font-weight="600" fill="#8B7355"
        font-family="'Fraunces', 'Georgia', serif" letter-spacing="1.2">WHEN</text>

  <circle cx="456" cy="750" r="7" fill="none" stroke="#C07A2E" stroke-width="1.5"/>
  <circle cx="456" cy="750" r="3.5" fill="#C07A2E"/>
  <text x="470" y="755" font-size="13" fill="#4A3228">Start now</text>
  <text x="536" y="755" font-size="11" fill="#8B7355">(6:00 AM)</text>

  <circle cx="620" cy="750" r="7" fill="none" stroke="#D9CEBD" stroke-width="1.5"/>
  <text x="634" y="755" font-size="13" fill="#8B7355">Start at</text>

  <circle cx="718" cy="750" r="7" fill="none" stroke="#D9CEBD" stroke-width="1.5"/>
  <text x="732" y="755" font-size="13" fill="#8B7355">Finish by</text>

  <!-- Hint -->
  <text x="404" y="756" font-size="11" fill="#A89478" font-style="italic">Starting now, bread ready ~4:40 AM tomorrow</text>

  <!-- Action buttons -->
  <rect x="964" y="728" width="100" height="40" rx="8" fill="#FFFFFF" stroke="#C07A2E" stroke-width="1.5"/>
  <text x="1014" y="753" text-anchor="middle" font-size="13" font-weight="600" fill="#C07A2E">📌 Save</text>

  <rect x="1076" y="728" width="100" height="40" rx="8" fill="#C07A2E"/>
  <text x="1126" y="753" text-anchor="middle" font-size="13" font-weight="600" fill="#FFFFFF">▶ Start Bake</text>

  <!-- ==================== BOTTOM TAB BAR ==================== -->
  <rect x="0" y="774" width="1194" height="60" fill="#F2EBE0"/>
  <line x1="0" y1="774" x2="1194" y2="774" stroke="#E5DDD0"/>

  <!-- Starter tab (inactive) -->
  <g transform="translate(159, 783)">
    <path d="M3,0 L11,0 L11,6 L15,18 L-1,18 L3,6 Z" fill="none" stroke="#8B7355" stroke-width="1.5" stroke-linejoin="round"/>
    <line x1="3" y1="0" x2="11" y2="0" stroke="#8B7355" stroke-width="2" stroke-linecap="round"/>
    <text x="7" y="34" text-anchor="middle" font-size="11" fill="#8B7355">Starter</text>
  </g>

  <!-- Bake tab (active) -->
  <g transform="translate(556, 783)">
    <rect x="0" y="0" width="14" height="18" rx="2" fill="none" stroke="#C07A2E" stroke-width="1.5"/>
    <rect x="4" y="-2" width="6" height="4" rx="1" fill="none" stroke="#C07A2E" stroke-width="1.5"/>
    <line x1="4" y1="7" x2="10" y2="7" stroke="#C07A2E" stroke-width="1"/>
    <line x1="4" y1="11" x2="10" y2="11" stroke="#C07A2E" stroke-width="1"/>
    <line x1="4" y1="15" x2="8" y2="15" stroke="#C07A2E" stroke-width="1"/>
    <text x="7" y="34" text-anchor="middle" font-size="11" font-weight="600" fill="#C07A2E">Bake</text>
  </g>

  <!-- Log tab (inactive) -->
  <g transform="translate(953, 783)">
    <rect x="0" y="0" width="14" height="18" rx="2" fill="none" stroke="#8B7355" stroke-width="1.5"/>
    <line x1="7" y1="0" x2="7" y2="18" stroke="#8B7355" stroke-width="1"/>
    <line x1="3" y1="5" x2="6" y2="5" stroke="#8B7355" stroke-width="0.8"/>
    <line x1="3" y1="8" x2="6" y2="8" stroke="#8B7355" stroke-width="0.8"/>
    <text x="7" y="34" text-anchor="middle" font-size="11" fill="#8B7355">Log</text>
  </g>

</svg>