<svg font-family="'Source Serif 4', 'Georgia', serif" font-size="14" viewBox="0 0 1194 834" xmlns="http://www.w3.org/2000/svg"><path d="m0 0h1194v834h-1194z" fill="#fefbf5"/><path d="m0 0h1194v56h-1194z" fill="#fefbf5"/><path d="m0 56h1194" stroke="#e5ddd0"/><text fill="#4a3228" font-family="'Fraunces', 'Georgia', serif" font-size="22" font-weight="700" x="32" y="37">Plan</text><g stroke="#8b7355"><circle cx="1148" cy="28" fill="none" r="9" stroke-width="1.5"/><circle cx="1148" cy="28" fill="none" r="3" stroke-width="1.5"/><path d="m1148 18v3" stroke-linecap="round" stroke-width="2"/><path d="m1148 35v3" stroke-linecap="round" stroke-width="2"/><path d="m1138 28h3" stroke-linecap="round" stroke-width="2"/><path d="m1155 28h3" stroke-linecap="round" stroke-width="2"/><path d="m1141 21 2.5 2.5" stroke-linecap="round" stroke-width="2"/><path d="m1152.5 32.5 2.5 2.5" stroke-linecap="round" stroke-width="2"/><path d="m1155 21-2.5 2.5" stroke-linecap="round" stroke-width="2"/><path d="m1143.5 32.5-2.5 2.5" stroke-linecap="round" stroke-width="2"/></g><path d="m0 774h1194v60h-1194z" fill="#f2ebe0"/><path d="m0 774h1194" stroke="#e5ddd0"/><g transform="translate(159 783)"><g stroke="#c07a2e"><rect fill="none" height="18" rx="2" stroke-width="1.5" width="14"/><rect fill="none" height="4" rx="1" stroke-width="1.5" width="6" x="4" y="-2"/><path d="m4 7h6"/><path d="m4 11h6"/><path d="m4 15h4"/></g><text fill="#c07a2e" font-size="11" font-weight="600" text-anchor="middle" x="7" y="34">Plan</text></g><g transform="translate(556 783)"><path d="m3 0h8v6l4 12h-16l4-12z" fill="none" stroke="#8b7355" stroke-linejoin="round" stroke-width="1.5"/><path d="m3 0h8" stroke="#8b7355" stroke-linecap="round" stroke-width="2"/><text fill="#8b7355" font-size="11" text-anchor="middle" x="7" y="34">Starter</text></g><g transform="translate(953 783)"><g stroke="#8b7355"><rect fill="none" height="18" rx="2" stroke-width="1.5" width="14"/><path d="m7 0v18"/><path d="m3 5h3" stroke-width=".8"/><path d="m3 8h3" stroke-width=".8"/></g><text fill="#8b7355" font-size="11" text-anchor="middle" x="7" y="34">Log</text></g><path d="m478 72v686" stroke="#e5ddd0"/><text fill="#8b7355" font-size="11" font-weight="600" letter-spacing="1.2" x="32" y="92">FORMULA</text><rect fill="#fdf6ec" height="100" rx="8" stroke="#c07a2e" stroke-width="2" width="132" x="32" y="104"/><text fill="#4a3228" font-size="14" font-weight="600" text-anchor="middle" x="98" y="128">No-Knead</text><text fill="#4a3228" font-size="14" font-weight="600" text-anchor="middle" x="98" y="146">PAL</text><circle cx="98" cy="164" fill="#c07a2e" r="4"/><text fill="#8b7355" font-size="12" text-anchor="middle" x="98" y="186">~22h · minimal</text><text fill="#8b7355" font-size="12" text-anchor="middle" x="98" y="198">handling</text><rect fill="#f2ebe0" height="100" rx="8" stroke="#d9cebd" width="132" x="176" y="104"/><text fill="#4a3228" font-size="14" font-weight="600" text-anchor="middle" x="242" y="128">Four-Fold</text><text fill="#4a3228" font-size="14" font-weight="600" text-anchor="middle" x="242" y="146">PAL</text><text fill="#8b7355" font-size="12" text-anchor="middle" x="242" y="178">~16.5h · 4 folds</text><rect fill="#f2ebe0" height="100" rx="8" stroke="#d9cebd" width="132" x="320" y="104"/><text fill="#4a3228" font-size="14" font-weight="600" text-anchor="middle" x="386" y="128">Tartine</text><text fill="#4a3228" font-size="14" font-weight="600" text-anchor="middle" x="386" y="146">Country</text><text fill="#8b7355" font-size="12" text-anchor="middle" x="386" y="178">~18h · classic</text><g opacity=".4"><g fill="#8b7355"><text font-size="11" font-weight="600" letter-spacing="1.2" x="32" y="236">FOUR-FOLD VARIANT</text><text font-size="12" text-anchor="middle" x="168" y="260">25% levain</text><text font-size="12" text-anchor="middle" x="310" y="260">35% levain</text><text font-size="11" text-anchor="middle" x="72" y="290">75%</text><text font-size="10" text-anchor="middle" x="72" y="302">hydration</text><text font-size="11" text-anchor="middle" x="72" y="340">80%</text><text font-size="10" text-anchor="middle" x="72" y="352">hydration</text></g><rect fill="#f2ebe0" height="40" rx="8" stroke="#d9cebd" width="116" x="110" y="270"/><text fill="#4a3228" font-size="13" text-anchor="middle" x="168" y="286">75/25</text><text fill="#5e8a50" font-size="10" text-anchor="middle" x="168" y="302">Beginner</text><rect fill="#f2ebe0" height="40" rx="8" stroke="#d9cebd" width="116" x="238" y="270"/><text fill="#4a3228" font-size="13" text-anchor="middle" x="296" y="286">75/35</text><text fill="#c07a2e" font-size="10" text-anchor="middle" x="296" y="302">Intermediate</text><rect fill="#f2ebe0" height="40" rx="8" stroke="#d9cebd" width="116" x="110" y="320"/><text fill="#4a3228" font-size="13" text-anchor="middle" x="168" y="336">80/25</text><text fill="#c07a2e" font-size="10" text-anchor="middle" x="168" y="352">Intermediate</text><rect fill="#f2ebe0" height="40" rx="8" stroke="#d9cebd" width="116" x="238" y="320"/><text fill="#4a3228" font-size="13" text-anchor="middle" x="296" y="336">80/35</text><text fill="#c97b3a" font-size="10" text-anchor="middle" x="296" y="352">Advanced</text></g><text fill="#8b7355" font-size="11" font-weight="600" letter-spacing="1.2" x="32" y="400">DOUGH WEIGHT</text><rect fill="#fff" height="40" rx="8" stroke="#c07a2e" stroke-width="1.5" width="44" x="32" y="414"/><text fill="#c07a2e" font-size="20" text-anchor="middle" x="54" y="440">−</text><text fill="#4a3228" font-family="'Fraunces', 'Georgia', serif" font-size="28" font-weight="700" text-anchor="middle" x="232" y="442">900g</text><rect fill="#fff" height="40" rx="8" stroke="#c07a2e" stroke-width="1.5" width="44" x="388" y="414"/><text fill="#c07a2e" font-size="20" text-anchor="middle" x="410" y="441">+</text><text fill="#8b7355" font-size="11" font-weight="600" letter-spacing="1.2" x="32" y="490">LEVAIN %</text><rect fill="#e5ddd0" height="4" rx="2" width="420" x="32" y="510"/><rect fill="#c07a2e" height="4" rx="2" width="187" x="32" y="510"/><circle cx="219" cy="512" fill="#c07a2e" r="10"/><circle cx="219" cy="512" fill="#fff" r="6"/><text fill="#8b7355" font-size="11" x="32" y="538">1%</text><text fill="#c07a2e" font-size="12" font-weight="600" text-anchor="middle" x="219" y="538">5%</text><text fill="#8b7355" font-size="11" text-anchor="end" x="452" y="538">10%</text><text fill="#8b7355" font-size="11" font-weight="600" letter-spacing="1.2" x="32" y="580">WHEN</text><circle cx="46" cy="604" fill="none" r="8" stroke="#c07a2e" stroke-width="1.5"/><circle cx="46" cy="604" fill="#c07a2e" r="4.5"/><text fill="#4a3228" font-size="14" x="62" y="609">Start now</text><text fill="#8b7355" font-size="12" x="140" y="609">(6:00 AM)</text><circle cx="46" cy="636" fill="none" r="8" stroke="#d9cebd" stroke-width="1.5"/><text fill="#8b7355" font-size="14" x="62" y="641">Bake by:</text><rect fill="#fff" height="30" rx="6" stroke="#d9cebd" width="160" x="130" y="622"/><text fill="#b8a898" font-size="13" x="142" y="641">Select date &amp; time</text><rect fill="#f2ebe0" height="36" rx="8" width="360" x="510" y="72"/><rect fill="#c07a2e" height="32" rx="6" width="118" x="512" y="74"/><text fill="#fff" font-size="13" font-weight="600" text-anchor="middle" x="571" y="95">Ingredients</text><text fill="#8b7355" font-size="13" text-anchor="middle" x="690" y="95">Timeline</text><text fill="#8b7355" font-size="13" text-anchor="middle" x="810" y="95">DDT</text><rect fill="#f2ebe0" height="36" rx="6" width="652" x="510" y="128"/><text fill="#8b7355" font-size="11" font-weight="600" letter-spacing="1.2" x="530" y="151">INGREDIENT</text><text fill="#8b7355" font-size="11" font-weight="600" letter-spacing="1.2" text-anchor="end" x="890" y="151">%</text><text fill="#8b7355" font-size="11" font-weight="600" letter-spacing="1.2" text-anchor="end" x="1030" y="151">GRAMS</text><path d="m510 166h652v44h-652z" fill="#fff"/><path d="m510 210h652" stroke="#e5ddd0"/><text fill="#4a3228" font-size="14" x="530" y="194">AP Flour</text><text fill="#4a3228" font-size="14" text-anchor="end" x="890" y="194">95%</text><text fill="#4a3228" font-size="16" font-weight="600" text-anchor="end" x="1030" y="194">456g</text><path d="m510 210h652v44h-652z" fill="#fefbf5"/><path d="m510 254h652" stroke="#e5ddd0"/><text fill="#4a3228" font-size="14" x="530" y="238">Rye Flour</text><text fill="#4a3228" font-size="14" text-anchor="end" x="890" y="238">5%</text><text fill="#4a3228" font-size="16" font-weight="600" text-anchor="end" x="1030" y="238">24g</text><path d="m510 254h652v44h-652z" fill="#fff"/><path d="m510 298h652" stroke="#e5ddd0"/><text fill="#4a3228" font-size="14" x="530" y="282">Water</text><text fill="#4a3228" font-size="14" text-anchor="end" x="890" y="282">74%</text><text fill="#4a3228" font-size="16" font-weight="600" text-anchor="end" x="1030" y="282">355g</text><path d="m510 298h652v44h-652z" fill="#fefbf5"/><path d="m510 342h652" stroke="#e5ddd0"/><text fill="#4a3228" font-size="14" x="530" y="326">Salt</text><text fill="#4a3228" font-size="14" text-anchor="end" x="890" y="326">2.2%</text><text fill="#4a3228" font-size="16" font-weight="600" text-anchor="end" x="1030" y="326">11g</text><path d="m510 342h652v44h-652z" fill="#fff"/><path d="m510 386h652" stroke="#e5ddd0"/><text fill="#4a3228" font-size="14" x="530" y="370">Levain</text><text fill="#4a3228" font-size="14" text-anchor="end" x="890" y="370">5%</text><text fill="#4a3228" font-size="16" font-weight="600" text-anchor="end" x="1030" y="370">24g</text><text fill="#8b7355" font-size="14" x="530" y="416">Hydration: 74%</text><text fill="#8b7355" font-size="14" x="700" y="416">·</text><text fill="#8b7355" font-size="14" x="720" y="416">Total: ~870g</text><rect fill="#fff" height="48" rx="8" stroke="#c07a2e" stroke-width="1.5" width="200" x="510" y="700"/><text fill="#c07a2e" font-size="15" x="528" y="729">📌</text><text fill="#c07a2e" font-size="14" font-weight="600" x="552" y="729">Save for Later</text><rect fill="#c07a2e" height="48" rx="8" width="200" x="730" y="700"/><text fill="#fff" font-size="15" x="754" y="729">▶</text><text fill="#fff" font-size="14" font-weight="600" x="778" y="729">Start Bake</text></svg>