<svg xmlns="http://www.w3.org/2000/svg" viewBox="0 0 1194 834"
     font-family="'Source Serif 4', 'Georgia', serif" font-size="14">

  <!-- Background -->
  <rect width="1194" height="834" fill="#FEFBF5"/>

  <!-- ==================== TOP NAV BAR ==================== -->
  <rect x="0" y="0" width="1194" height="56" fill="#FEFBF5"/>
  <line x1="0" y1="56" x2="1194" y2="56" stroke="#E5DDD0"/>
  <text x="32" y="37" font-size="22" font-weight="700" fill="#4A3228"
        font-family="'Fraunces', 'Georgia', serif">Bread Log</text>
  <text x="32" y="52" font-size="11" fill="#8B7355">12 bakes</text>

  <!-- + New Entry button -->
  <rect x="1020" y="14" width="140" height="34" rx="8" fill="#C07A2E"/>
  <text x="1090" y="36" text-anchor="middle" font-size="13" font-weight="600" fill="#FFFFFF">+ New Entry</text>

  <!-- Gear icon -->
  <g transform="translate(980, 18)" stroke="#8B7355">
    <circle cx="10" cy="10" r="9" fill="none" stroke-width="1.5"/>
    <circle cx="10" cy="10" r="3" fill="none" stroke-width="1.5"/>
    <line x1="10" y1="0" x2="10" y2="3" stroke-width="2" stroke-linecap="round"/>
    <line x1="10" y1="17" x2="10" y2="20" stroke-width="2" stroke-linecap="round"/>
    <line x1="0" y1="10" x2="3" y2="10" stroke-width="2" stroke-linecap="round"/>
    <line x1="17" y1="10" x2="20" y2="10" stroke-width="2" stroke-linecap="round"/>
    <line x1="3" y1="3" x2="5.5" y2="5.5" stroke-width="2" stroke-linecap="round"/>
    <line x1="14.5" y1="14.5" x2="17" y2="17" stroke-width="2" stroke-linecap="round"/>
    <line x1="17" y1="3" x2="14.5" y2="5.5" stroke-width="2" stroke-linecap="round"/>
    <line x1="5.5" y1="14.5" x2="3" y2="17" stroke-width="2" stroke-linecap="round"/>
  </g>

  <!-- ==================== FILTER BAR ==================== -->
  <rect x="32" y="68" width="1130" height="44" rx="8" fill="#F2EBE0"/>

  <text x="52" y="95" font-size="12" fill="#8B7355">Starter:</text>
  <rect x="108" y="76" width="180" height="28" rx="6" fill="#FFFFFF" stroke="#D9CEBD"/>
  <text x="124" y="95" font-size="13" fill="#4A3228">All Starters</text>
  <text x="272" y="95" font-size="11" fill="#8B7355">&#9660;</text>

  <text x="320" y="95" font-size="12" fill="#8B7355">Formula:</text>
  <rect x="384" y="76" width="180" height="28" rx="6" fill="#FFFFFF" stroke="#D9CEBD"/>
  <text x="400" y="95" font-size="13" fill="#4A3228">All Formulas</text>
  <text x="548" y="95" font-size="11" fill="#8B7355">&#9660;</text>

  <!-- ==================== BAKE GRID — ROW 1 ==================== -->

  <!-- Card 1 -->
  <rect x="32" y="128" width="272" height="260" rx="10" fill="#FFFFFF" stroke="#E5DDD0"/>
  <rect x="32" y="128" width="272" height="160" rx="10" fill="#F2EBE0"/>
  <rect x="32" y="278" width="272" height="10" fill="#FFFFFF"/>
  <text x="168" y="216" text-anchor="middle" font-size="11" fill="#D9CEBD">Photo</text>
  <text x="48" y="310" font-size="13" font-weight="600" fill="#4A3228">Mar 15</text>
  <text x="48" y="330" font-size="13" fill="#8B7355">No-Knead PAL</text>
  <text x="48" y="354" font-size="15" fill="#C07A2E">&#9733;&#9733;&#9733;&#9733;</text>
  <text x="108" y="354" font-size="15" fill="#E5DDD0">&#9733;</text>

  <!-- Card 2 -->
  <rect x="320" y="128" width="272" height="260" rx="10" fill="#FFFFFF" stroke="#E5DDD0"/>
  <rect x="320" y="128" width="272" height="160" rx="10" fill="#F2EBE0"/>
  <rect x="320" y="278" width="272" height="10" fill="#FFFFFF"/>
  <text x="456" y="216" text-anchor="middle" font-size="11" fill="#D9CEBD">Photo</text>
  <text x="336" y="310" font-size="13" font-weight="600" fill="#4A3228">Mar 10</text>
  <text x="336" y="330" font-size="13" fill="#8B7355">Four-Fold 80/25</text>
  <text x="336" y="354" font-size="15" fill="#C07A2E">&#9733;&#9733;&#9733;&#9733;&#9733;</text>

  <!-- Card 3 -->
  <rect x="608" y="128" width="272" height="260" rx="10" fill="#FFFFFF" stroke="#E5DDD0"/>
  <rect x="608" y="128" width="272" height="160" rx="10" fill="#F2EBE0"/>
  <rect x="608" y="278" width="272" height="10" fill="#FFFFFF"/>
  <text x="744" y="216" text-anchor="middle" font-size="11" fill="#D9CEBD">Photo</text>
  <text x="624" y="310" font-size="13" font-weight="600" fill="#4A3228">Mar 5</text>
  <text x="624" y="330" font-size="13" fill="#8B7355">No-Knead PAL</text>
  <text x="624" y="354" font-size="15" fill="#C07A2E">&#9733;&#9733;&#9733;</text>
  <text x="669" y="354" font-size="15" fill="#E5DDD0">&#9733;&#9733;</text>

  <!-- Card 4 -->
  <rect x="896" y="128" width="272" height="260" rx="10" fill="#FFFFFF" stroke="#E5DDD0"/>
  <rect x="896" y="128" width="272" height="160" rx="10" fill="#F2EBE0"/>
  <rect x="896" y="278" width="272" height="10" fill="#FFFFFF"/>
  <text x="1032" y="216" text-anchor="middle" font-size="11" fill="#D9CEBD">Photo</text>
  <text x="912" y="310" font-size="13" font-weight="600" fill="#4A3228">Feb 28</text>
  <text x="912" y="330" font-size="13" fill="#8B7355">Tartine Country</text>
  <text x="912" y="354" font-size="15" fill="#C07A2E">&#9733;&#9733;&#9733;&#9733;</text>
  <text x="972" y="354" font-size="15" fill="#E5DDD0">&#9733;</text>

  <!-- ==================== BAKE GRID — ROW 2 ==================== -->

  <!-- Card 5 -->
  <rect x="32" y="404" width="272" height="260" rx="10" fill="#FFFFFF" stroke="#E5DDD0"/>
  <rect x="32" y="404" width="272" height="160" rx="10" fill="#F2EBE0"/>
  <rect x="32" y="554" width="272" height="10" fill="#FFFFFF"/>
  <text x="168" y="492" text-anchor="middle" font-size="11" fill="#D9CEBD">Photo</text>
  <text x="48" y="586" font-size="13" font-weight="600" fill="#4A3228">Feb 22</text>
  <text x="48" y="606" font-size="13" fill="#8B7355">Four-Fold 75/25</text>
  <text x="48" y="630" font-size="15" fill="#C07A2E">&#9733;&#9733;&#9733;&#9733;&#9733;</text>

  <!-- Card 6 -->
  <rect x="320" y="404" width="272" height="260" rx="10" fill="#FFFFFF" stroke="#E5DDD0"/>
  <rect x="320" y="404" width="272" height="160" rx="10" fill="#F2EBE0"/>
  <rect x="320" y="554" width="272" height="10" fill="#FFFFFF"/>
  <text x="456" y="492" text-anchor="middle" font-size="11" fill="#D9CEBD">Photo</text>
  <text x="336" y="586" font-size="13" font-weight="600" fill="#4A3228">Feb 15</text>
  <text x="336" y="606" font-size="13" fill="#8B7355">No-Knead PAL</text>
  <text x="336" y="630" font-size="15" fill="#C07A2E">&#9733;&#9733;</text>
  <text x="369" y="630" font-size="15" fill="#E5DDD0">&#9733;&#9733;&#9733;</text>

  <!-- Card 7 -->
  <rect x="608" y="404" width="272" height="260" rx="10" fill="#FFFFFF" stroke="#E5DDD0"/>
  <rect x="608" y="404" width="272" height="160" rx="10" fill="#F2EBE0"/>
  <rect x="608" y="554" width="272" height="10" fill="#FFFFFF"/>
  <text x="744" y="492" text-anchor="middle" font-size="11" fill="#D9CEBD">Photo</text>
  <text x="624" y="586" font-size="13" font-weight="600" fill="#4A3228">Feb 10</text>
  <text x="624" y="606" font-size="13" fill="#8B7355">Four-Fold 75/35</text>
  <text x="624" y="630" font-size="15" fill="#C07A2E">&#9733;&#9733;&#9733;&#9733;</text>
  <text x="684" y="630" font-size="15" fill="#E5DDD0">&#9733;</text>

  <!-- Card 8 -->
  <rect x="896" y="404" width="272" height="260" rx="10" fill="#FFFFFF" stroke="#E5DDD0"/>
  <rect x="896" y="404" width="272" height="160" rx="10" fill="#F2EBE0"/>
  <rect x="896" y="554" width="272" height="10" fill="#FFFFFF"/>
  <text x="1032" y="492" text-anchor="middle" font-size="11" fill="#D9CEBD">Photo</text>
  <text x="912" y="586" font-size="13" font-weight="600" fill="#4A3228">Feb 5</text>
  <text x="912" y="606" font-size="13" fill="#8B7355">No-Knead PAL</text>
  <text x="912" y="630" font-size="15" fill="#C07A2E">&#9733;&#9733;&#9733;</text>
  <text x="957" y="630" font-size="15" fill="#E5DDD0">&#9733;&#9733;</text>

  <!-- ==================== BOTTOM TAB BAR ==================== -->
  <rect x="0" y="774" width="1194" height="60" fill="#F2EBE0"/>
  <line x1="0" y1="774" x2="1194" y2="774" stroke="#E5DDD0"/>

  <g transform="translate(159, 783)">
    <path d="M3,0 L11,0 L11,6 L15,18 L-1,18 L3,6 Z" fill="none" stroke="#8B7355" stroke-width="1.5" stroke-linejoin="round"/>
    <line x1="3" y1="0" x2="11" y2="0" stroke="#8B7355" stroke-width="2" stroke-linecap="round"/>
    <text x="7" y="34" text-anchor="middle" font-size="11" fill="#8B7355">Starter</text>
  </g>

  <g transform="translate(556, 783)">
    <rect x="0" y="0" width="14" height="18" rx="2" fill="none" stroke="#8B7355" stroke-width="1.5"/>
    <rect x="4" y="-2" width="6" height="4" rx="1" fill="none" stroke="#8B7355" stroke-width="1.5"/>
    <line x1="4" y1="7" x2="10" y2="7" stroke="#8B7355" stroke-width="1"/>
    <line x1="4" y1="11" x2="10" y2="11" stroke="#8B7355" stroke-width="1"/>
    <text x="7" y="34" text-anchor="middle" font-size="11" fill="#8B7355">Bake</text>
  </g>

  <g transform="translate(953, 783)">
    <rect x="0" y="0" width="14" height="18" rx="2" fill="none" stroke="#C07A2E" stroke-width="1.5"/>
    <line x1="7" y1="0" x2="7" y2="18" stroke="#C07A2E" stroke-width="1"/>
    <line x1="3" y1="5" x2="6" y2="5" stroke="#C07A2E" stroke-width="0.8"/>
    <line x1="3" y1="8" x2="6" y2="8" stroke="#C07A2E" stroke-width="0.8"/>
    <text x="7" y="34" text-anchor="middle" font-size="11" font-weight="600" fill="#C07A2E">Log</text>
  </g>

</svg>