<svg xmlns="http://www.w3.org/2000/svg" viewBox="0 0 1194 834"
     font-family="'Source Serif 4', 'Georgia', serif" font-size="14">

  <!-- Background -->
  <rect width="1194" height="834" fill="#FEFBF5"/>

  <!-- ==================== TOP NAV BAR ==================== -->
  <rect x="0" y="0" width="1194" height="56" fill="#FEFBF5"/>
  <line x1="0" y1="56" x2="1194" y2="56" stroke="#E5DDD0"/>
  <text x="32" y="37" font-size="22" font-weight="700" fill="#4A3228" font-family="'Fraunces', 'Georgia', serif">Bread Log</text>
  <text x="32" y="54" font-size="12" fill="#8B7355">12 bakes</text>

  <!-- + New Entry button -->
  <rect x="1014" y="14" width="148" height="36" rx="8" fill="#C07A2E"/>
  <text x="1088" y="37" text-anchor="middle" font-size="14" font-weight="600" fill="#FFFFFF">+ New Entry</text>

  <!-- Gear icon -->
  <g transform="translate(978, 18)" stroke="#8B7355">
    <circle cx="10" cy="10" r="9" fill="none" stroke-width="1.5"/>
    <circle cx="10" cy="10" r="3" fill="none" stroke-width="1.5"/>
    <line x1="10" y1="0" x2="10" y2="3" stroke-width="2" stroke-linecap="round"/>
    <line x1="10" y1="17" x2="10" y2="20" stroke-width="2" stroke-linecap="round"/>
    <line x1="0" y1="10" x2="3" y2="10" stroke-width="2" stroke-linecap="round"/>
    <line x1="17" y1="10" x2="20" y2="10" stroke-width="2" stroke-linecap="round"/>
    <line x1="3" y1="3" x2="5.5" y2="5.5" stroke-width="2" stroke-linecap="round"/>
    <line x1="14.5" y1="14.5" x2="17" y2="17" stroke-width="2" stroke-linecap="round"/>
    <line x1="17" y1="3" x2="14.5" y2="5.5" stroke-width="2" stroke-linecap="round"/>
    <line x1="5.5" y1="14.5" x2="3" y2="17" stroke-width="2" stroke-linecap="round"/>
  </g>

  <!-- ==================== BOTTOM TAB BAR ==================== -->
  <rect x="0" y="774" width="1194" height="60" fill="#F2EBE0"/>
  <line x1="0" y1="774" x2="1194" y2="774" stroke="#E5DDD0"/>

  <!-- Plan tab (inactive) -->
  <g transform="translate(159, 783)">
    <rect x="0" y="0" width="14" height="18" rx="2" fill="none" stroke="#8B7355" stroke-width="1.5"/>
    <rect x="4" y="-2" width="6" height="4" rx="1" fill="none" stroke="#8B7355" stroke-width="1.5"/>
    <line x1="4" y1="7" x2="10" y2="7" stroke="#8B7355" stroke-width="1"/>
    <line x1="4" y1="11" x2="10" y2="11" stroke="#8B7355" stroke-width="1"/>
    <line x1="4" y1="15" x2="8" y2="15" stroke="#8B7355" stroke-width="1"/>
    <text x="7" y="34" text-anchor="middle" font-size="11" fill="#8B7355">Plan</text>
  </g>

  <!-- Starter tab (inactive) -->
  <g transform="translate(556, 783)">
    <path d="M3,0 L11,0 L11,6 L15,18 L-1,18 L3,6 Z" fill="none" stroke="#8B7355" stroke-width="1.5" stroke-linejoin="round"/>
    <line x1="3" y1="0" x2="11" y2="0" stroke="#8B7355" stroke-linecap="round" stroke-width="2"/>
    <text x="7" y="34" text-anchor="middle" font-size="11" fill="#8B7355">Starter</text>
  </g>

  <!-- Log tab (active) -->
  <g transform="translate(953, 783)">
    <rect x="0" y="0" width="14" height="18" rx="2" fill="none" stroke="#C07A2E" stroke-width="1.5"/>
    <line x1="7" y1="0" x2="7" y2="18" stroke="#C07A2E" stroke-width="1"/>
    <line x1="3" y1="5" x2="6" y2="5" stroke="#C07A2E" stroke-width="0.8"/>
    <line x1="3" y1="8" x2="6" y2="8" stroke="#C07A2E" stroke-width="0.8"/>
    <text x="7" y="34" text-anchor="middle" font-size="11" font-weight="600" fill="#C07A2E">Log</text>
  </g>

  <!-- ==================== BAKE CARD GRID (4 columns) ==================== -->

  <!-- Row 1 -->
  <!-- Card 1 -->
  <g transform="translate(32, 80)">
    <rect width="268" height="300" rx="10" fill="#FFFFFF" stroke="#E5DDD0"/>
    <!-- Photo placeholder -->
    <rect x="8" y="8" width="252" height="172" rx="6" fill="#F2EBE0"/>
    <line x1="8" y1="8" x2="260" y2="180" stroke="#E5DDD0" stroke-width="0.5"/>
    <line x1="260" y1="8" x2="8" y2="180" stroke="#E5DDD0" stroke-width="0.5"/>
    <text x="134" y="100" text-anchor="middle" font-size="12" fill="#D9CEBD">Photo</text>
    <!-- Card content -->
    <text x="16" y="208" font-size="13" fill="#8B7355">Mar 15</text>
    <text x="16" y="230" font-size="16" font-weight="600" fill="#4A3228">No-Knead PAL</text>
    <!-- Star rating -->
    <text x="16" y="256" font-size="16" fill="#C07A2E">&#9733;&#9733;&#9733;&#9733;</text><text x="80" y="256" font-size="16" fill="#E5DDD0">&#9733;</text>
    <text x="16" y="280" font-size="12" fill="#8B7355">74% hydration · 5% levain</text>
  </g>

  <!-- Card 2 -->
  <g transform="translate(316, 80)">
    <rect width="268" height="300" rx="10" fill="#FFFFFF" stroke="#E5DDD0"/>
    <rect x="8" y="8" width="252" height="172" rx="6" fill="#F2EBE0"/>
    <line x1="8" y1="8" x2="260" y2="180" stroke="#E5DDD0" stroke-width="0.5"/>
    <line x1="260" y1="8" x2="8" y2="180" stroke="#E5DDD0" stroke-width="0.5"/>
    <text x="134" y="100" text-anchor="middle" font-size="12" fill="#D9CEBD">Photo</text>
    <text x="16" y="208" font-size="13" fill="#8B7355">Mar 10</text>
    <text x="16" y="230" font-size="16" font-weight="600" fill="#4A3228">Four-Fold 80/25</text>
    <text x="16" y="256" font-size="16" fill="#C07A2E">&#9733;&#9733;&#9733;&#9733;&#9733;</text>
    <text x="16" y="280" font-size="12" fill="#8B7355">80% hydration · 25% levain</text>
  </g>

  <!-- Card 3 -->
  <g transform="translate(600, 80)">
    <rect width="268" height="300" rx="10" fill="#FFFFFF" stroke="#E5DDD0"/>
    <rect x="8" y="8" width="252" height="172" rx="6" fill="#F2EBE0"/>
    <line x1="8" y1="8" x2="260" y2="180" stroke="#E5DDD0" stroke-width="0.5"/>
    <line x1="260" y1="8" x2="8" y2="180" stroke="#E5DDD0" stroke-width="0.5"/>
    <text x="134" y="100" text-anchor="middle" font-size="12" fill="#D9CEBD">Photo</text>
    <text x="16" y="208" font-size="13" fill="#8B7355">Mar 5</text>
    <text x="16" y="230" font-size="16" font-weight="600" fill="#4A3228">No-Knead PAL</text>
    <text x="16" y="256" font-size="16" fill="#C07A2E">&#9733;&#9733;&#9733;</text><text x="64" y="256" font-size="16" fill="#E5DDD0">&#9733;&#9733;</text>
    <text x="16" y="280" font-size="12" fill="#8B7355">74% hydration · 5% levain</text>
  </g>

  <!-- Card 4 -->
  <g transform="translate(884, 80)">
    <rect width="268" height="300" rx="10" fill="#FFFFFF" stroke="#E5DDD0"/>
    <rect x="8" y="8" width="252" height="172" rx="6" fill="#F2EBE0"/>
    <line x1="8" y1="8" x2="260" y2="180" stroke="#E5DDD0" stroke-width="0.5"/>
    <line x1="260" y1="8" x2="8" y2="180" stroke="#E5DDD0" stroke-width="0.5"/>
    <text x="134" y="100" text-anchor="middle" font-size="12" fill="#D9CEBD">Photo</text>
    <text x="16" y="208" font-size="13" fill="#8B7355">Feb 28</text>
    <text x="16" y="230" font-size="16" font-weight="600" fill="#4A3228">Tartine Country</text>
    <text x="16" y="256" font-size="16" fill="#C07A2E">&#9733;&#9733;&#9733;&#9733;</text><text x="80" y="256" font-size="16" fill="#E5DDD0">&#9733;</text>
    <text x="16" y="280" font-size="12" fill="#8B7355">75% hydration · classic</text>
  </g>

  <!-- Row 2 -->
  <!-- Card 5 -->
  <g transform="translate(32, 400)">
    <rect width="268" height="300" rx="10" fill="#FFFFFF" stroke="#E5DDD0"/>
    <rect x="8" y="8" width="252" height="172" rx="6" fill="#F2EBE0"/>
    <line x1="8" y1="8" x2="260" y2="180" stroke="#E5DDD0" stroke-width="0.5"/>
    <line x1="260" y1="8" x2="8" y2="180" stroke="#E5DDD0" stroke-width="0.5"/>
    <text x="134" y="100" text-anchor="middle" font-size="12" fill="#D9CEBD">Photo</text>
    <text x="16" y="208" font-size="13" fill="#8B7355">Feb 22</text>
    <text x="16" y="230" font-size="16" font-weight="600" fill="#4A3228">Four-Fold 75/25</text>
    <text x="16" y="256" font-size="16" fill="#C07A2E">&#9733;&#9733;&#9733;&#9733;&#9733;</text>
    <text x="16" y="280" font-size="12" fill="#8B7355">75% hydration · 25% levain</text>
  </g>

  <!-- Card 6 -->
  <g transform="translate(316, 400)">
    <rect width="268" height="300" rx="10" fill="#FFFFFF" stroke="#E5DDD0"/>
    <rect x="8" y="8" width="252" height="172" rx="6" fill="#F2EBE0"/>
    <line x1="8" y1="8" x2="260" y2="180" stroke="#E5DDD0" stroke-width="0.5"/>
    <line x1="260" y1="8" x2="8" y2="180" stroke="#E5DDD0" stroke-width="0.5"/>
    <text x="134" y="100" text-anchor="middle" font-size="12" fill="#D9CEBD">Photo</text>
    <text x="16" y="208" font-size="13" fill="#8B7355">Feb 15</text>
    <text x="16" y="230" font-size="16" font-weight="600" fill="#4A3228">No-Knead PAL</text>
    <text x="16" y="256" font-size="16" fill="#C07A2E">&#9733;&#9733;</text><text x="48" y="256" font-size="16" fill="#E5DDD0">&#9733;&#9733;&#9733;</text>
    <text x="16" y="280" font-size="12" fill="#8B7355">74% hydration · 5% levain</text>
  </g>

  <!-- Card 7 -->
  <g transform="translate(600, 400)">
    <rect width="268" height="300" rx="10" fill="#FFFFFF" stroke="#E5DDD0"/>
    <rect x="8" y="8" width="252" height="172" rx="6" fill="#F2EBE0"/>
    <line x1="8" y1="8" x2="260" y2="180" stroke="#E5DDD0" stroke-width="0.5"/>
    <line x1="260" y1="8" x2="8" y2="180" stroke="#E5DDD0" stroke-width="0.5"/>
    <text x="134" y="100" text-anchor="middle" font-size="12" fill="#D9CEBD">Photo</text>
    <text x="16" y="208" font-size="13" fill="#8B7355">Feb 10</text>
    <text x="16" y="230" font-size="16" font-weight="600" fill="#4A3228">Four-Fold 75/35</text>
    <text x="16" y="256" font-size="16" fill="#C07A2E">&#9733;&#9733;&#9733;&#9733;</text><text x="80" y="256" font-size="16" fill="#E5DDD0">&#9733;</text>
    <text x="16" y="280" font-size="12" fill="#8B7355">75% hydration · 35% levain</text>
  </g>

  <!-- Card 8 -->
  <g transform="translate(884, 400)">
    <rect width="268" height="300" rx="10" fill="#FFFFFF" stroke="#E5DDD0"/>
    <rect x="8" y="8" width="252" height="172" rx="6" fill="#F2EBE0"/>
    <line x1="8" y1="8" x2="260" y2="180" stroke="#E5DDD0" stroke-width="0.5"/>
    <line x1="260" y1="8" x2="8" y2="180" stroke="#E5DDD0" stroke-width="0.5"/>
    <text x="134" y="100" text-anchor="middle" font-size="12" fill="#D9CEBD">Photo</text>
    <text x="16" y="208" font-size="13" fill="#8B7355">Feb 5</text>
    <text x="16" y="230" font-size="16" font-weight="600" fill="#4A3228">No-Knead PAL</text>
    <text x="16" y="256" font-size="16" fill="#C07A2E">&#9733;&#9733;&#9733;</text><text x="64" y="256" font-size="16" fill="#E5DDD0">&#9733;&#9733;</text>
    <text x="16" y="280" font-size="12" fill="#8B7355">74% hydration · 3% levain</text>
  </g>

</svg>